<?xml version="1.0" encoding="UTF-8" standalone="no"?>
<svg
   xmlns:svg="http://www.w3.org/2000/svg"
   xmlns="http://www.w3.org/2000/svg"
   height="270.035"
   width="385.62952"
   id="svg1031"
   version="1.1"
   viewBox="0 0 385.62953 270.03501">

  <defs
     id="defs973">
    <style
       id="style971">.cls-1{fill:#2e222f;}.cls-2,.cls-6{fill:#fca790;}.cls-2,.cls-7{stroke:#2e222f;}.cls-2,.cls-7,.cls-8{stroke-linecap:round;stroke-linejoin:round;stroke-width:10px;}.cls-3{fill:#fff;}.cls-4{fill:#c7dcd0;}.cls-5{fill:#fdcbb0;}.cls-7,.cls-8{fill:none;}.cls-8{stroke:#3e3546;}</style>
  </defs>
  <g
     transform="translate(-9.9804688,0.01548521)"
     id="Layer_2">
    <g
            id="Layer_1-2">
      <path
         id="path975"
         d="m 248.81,162.05 c -0.44,0 -0.88,0 -1.33,0 h -90 c -0.45,0 -0.89,0 -1.33,0 -11.54,0.57 -10.88,18 0.67,18 h 91.32 c 11.56,-0.05 12.21,-17.43 0.67,-18 z"
         class="cls-1" />
      <path
         id="path977"
         d="m 202.48,171 c 144,0 144,99 144,99 h -288 c 0,0 0,-99 144,-99 z"
         class="cls-1" />
      <path
         id="path979"
         d="m 103.37,72 c 0,0 -36.89,0 -36.89,45 0,45 36.89,45 36.89,45 h 18.45 z"
         class="cls-2" />
      <path
         id="path981"
         d="m 301.48,72 c 0,0 36,0 36,45 0,45 -36,45 -36,45 h -18 z"
         class="cls-2" />
      <polygon
         id="polygon985"
         points="233.98,171.01 238.48,180.01 242.98,171.01 "
         class="cls-3" />
      <g
         id="g1628">
        <polygon
           class="cls-3"
           points="161.98,171.01 166.48,180.01 170.98,171.01 "
           id="polygon983" />
        <polygon
           class="cls-4"
           points="170.98,171.01 175.48,162.01 157.48,162.01 161.98,171.01 "
           id="polygon987" />
      </g>
      <polygon
         id="polygon989"
         points="242.98,171.01 247.48,162.01 229.48,162.01 233.98,171.01 "
         class="cls-4" />
      <path
         id="path991"
         d="m 93.68,126 c 1.15,30.72 15.45,90 108.8,90 93.35,0 107.66,-59.28 108.81,-90 z m 154.46,54 h -91.32 c -11.55,0 -12.21,-17.39 -0.67,-18 0.44,0 0.88,0 1.33,0 h 90 c 0.45,0 0.9,0 1.34,0 11.54,0.63 10.88,18 -0.68,18 z"
         class="cls-5" />
      <path
         id="path993"
         d="m 310.48,108 h -216 a 99.07,99.07 0 0 0 -0.8,18 h 217.61 a 98.41,98.41 0 0 0 -0.81,-18 z"
         class="cls-6" />
      <path
         id="path995"
         d="m 202.48,0 c -79.53,0 -117,46.47 -117,126 0,72 54,100 118,100 62,0 116,-28 116,-100 0,-79.51 -37,-127 -117,-126 z m 0,216 c -93.35,0 -107.65,-59.28 -108.8,-90 -0.12,-3.2 -0.1,-6.08 0,-8.56 A 9.82,9.82 0 0 1 103.5,108 h 0.34 a 9.82,9.82 0 0 1 9.61,7.75 c 2.26,10.58 9.81,28.25 35,28.25 25.19,0 32.77,-17.67 35,-28.25 a 9.81,9.81 0 0 1 9.61,-7.75 h 19 a 9.82,9.82 0 0 1 9.61,7.75 c 2.26,10.58 9.82,28.25 35,28.25 25.18,0 32.77,-17.67 35,-28.25 a 9.82,9.82 0 0 1 9.61,-7.75 v 0 a 9.82,9.82 0 0 1 9.83,9.44 c 0.09,2.48 0.12,5.36 0,8.56 -0.97,30.74 -15.27,90 -108.63,90 z"
         class="cls-1" />
      <path
         id="path997"
         d="m 148.48,135 c 16.56,0 23,-10.15 25.43,-18 h -50.86 c 2.48,7.87 8.88,18 25.43,18 z"
         class="cls-3" />
      <path
         id="path1001"
         d="m 121.48,108 a 33.56,33.56 0 0 0 1.57,9 h 50.86 a 33.08,33.08 0 0 0 1.57,-9 z"
         class="cls-4" />
      <g
         id="g1632">
        <path
           class="cls-3"
           d="m 256.82,135 c 16.55,0 22.95,-10.15 25.43,-18 h -50.86 c 2.47,7.87 8.87,18 25.43,18 z"
           id="path999" />
        <path
           class="cls-4"
           d="m 229.82,108 a 33.08,33.08 0 0 0 1.57,9 h 50.86 a 33.56,33.56 0 0 0 1.57,-9 z"
           id="path1003" />
      </g>
      <path
         id="path1005"
         d="m 130.48,108 c 0,0 0,18 18,18 18,0 18,-18 18,-18 v -9 h -36 z"
         class="cls-1" />
      <path
         id="path1007"
         d="m 238.82,108 c 0,0 0,18 18,18 18,0 18,-18 18,-18 l -0.34,-9 h -36 z"
         class="cls-1" />
      <path
         id="path1009"
         d="m 184.48,144 c 0,0 0,-9 9,-9 9,0 9,9 9,9 0,0 0,-9 9,-9 9,0 9,9 9,9"
         class="cls-7" />
      <line
         id="line1011"
         y2="198.02"
         x2="220.48"
         y1="198.02"
         x1="184.48"
         class="cls-7" />
      <line
         id="line1013"
         y2="90.019997"
         x2="301.48001"
         y1="90.019997"
         x1="103.48"
         class="cls-8" />
      <path
         id="path1015"
         d="m 94.48,270 c 0,0 -1,-45 54,-45 26.25,0 40.25,9.18 47.36,16.84 a 10.82,10.82 0 0 0 15.22,0.71 67.05,67.05 0 0 1 45.42,-17.55 c 54,0 54,45 54,45 z"
         class="cls-5" />
      <circle
         id="circle1017"
         r="4.5"
         cy="256.51999"
         cx="267.98001"
         class="cls-1" />
      <circle
         id="circle1019"
         r="4.5"
         cy="256.57001"
         cx="136.82001"
         class="cls-1" />
      <g
         id="g1620">
        <path
           class="cls-5"
           d="m 293.71,200.68 a 5,5 0 0 1 -7.07,0 L 273.91,188 a 4.78,4.78 0 0 1 -1,-1.39 32.66,32.66 0 0 0 -7.33,4.42 L 281,206.34 a 5.0027817,5.0027817 0 1 1 -7.08,7.07 l -15.35,-15.35 a 32.45,32.45 0 0 0 -4.41,7.32 5,5 0 0 1 1.38,1 l 12.73,12.72 a 5.0027817,5.0027817 0 1 1 -7.07,7.08 l -9.08,-9.08 c 0.7,11.81 9.22,20.53 9.78,21.1 l 31.85,31.8 h 87.68 l -75.7,-75.7 a 40,40 0 0 0 -14.25,-8.44 29,29 0 0 0 -6.82,-1.33 l 9,9.06 a 5,5 0 0 1 0.05,7.09 z"
           id="path1021" />
        <path
           class="cls-1"
           d="m 312.81,187.24 a 50.11,50.11 0 0 0 -17.87,-10.75 c -10.05,-3.35 -25.16,-4.2 -40.12,10.75 -14.96,14.95 -14.1,30.08 -10.75,40.12 a 50,50 0 0 0 10.75,17.87 L 279.61,270 h 116 z m -33.19,68.64 -17.73,-17.72 c -0.56,-0.57 -9.08,-9.29 -9.78,-21.1 l 9.08,9.08 a 5.0027817,5.0027817 0 1 0 7.07,-7.08 l -12.73,-12.72 a 5,5 0 0 0 -1.38,-1 32.45,32.45 0 0 1 4.41,-7.32 l 15.35,15.35 a 5.0027817,5.0027817 0 1 0 7.08,-7.07 L 265.63,191 a 32.66,32.66 0 0 1 7.33,-4.42 4.78,4.78 0 0 0 1,1.39 l 12.73,12.73 a 5,5 0 0 0 7.07,-7.07 l -9,-9.06 a 29,29 0 0 1 6.82,1.33 40,40 0 0 1 14.25,8.44 L 323.46,212 Z"
           id="path1025" />
      </g>
      <g
         transform="translate(6)"
         id="g1624">
        <path
           id="path1023"
           d="m 114.66016,184.84961 c -11.81,0.7 -20.529613,9.22125 -21.099613,9.78125 l -75.4375,75.38867 h 87.675783 l 31.60156,-31.60937 a 40,40 0 0 0 8.43945,-14.25 28.06,28.06 0 0 0 1.33008,-6.82032 l -9.06054,9 a 5,5 0 0 1 -7.10938,0.0703 5,5 0 0 1 0,-7.07032 l 12.73047,-12.73046 a 5,5 0 0 1 1.38867,-1 32.82,32.82 0 0 0 -4.41992,-7.32032 l -15.35938,15.36133 a 5.0029196,5.0029196 0 0 1 -7.07031,-7.08008 l 15.34961,-15.34961 a 32.08,32.08 0 0 0 -7.31836,-4.41015 5,5 0 0 1 -1,1.3789 L 112.66016,201 a 5,5 0 1 1 -7.07032,-7.07031 z"
           style="fill:#fdcbb0;fill-opacity:1" />
        <path
           id="path1027"
           d="m 117.5332,174.74805 c -4.92392,-0.1435 -9.40882,0.76523 -13.17382,2.02148 a 50,50 0 0 0 -17.869146,10.75 l -82.5097652,82.5 H 119.98047 l 24.5293,-24.5293 a 50.11,50.11 0 0 0 10.75,-17.87109 c 3.35,-10 4.2,-25.15914 -10.75,-40.11914 -9.34375,-9.35 -18.77002,-12.51279 -26.97657,-12.75195 z m -2.87304,10.0625 -9.07032,9.08007 a 5,5 0 1 0 7.07032,7.07032 l 12.7207,-12.73047 a 5,5 0 0 0 1,-1.38086 32.08,32.08 0 0 1 7.31836,4.41016 l -15.34961,15.34961 a 5.002916,5.002916 0 0 0 7.07031,7.08007 l 15.35938,-15.35937 a 32.82,32.82 0 0 1 4.41992,7.32031 5,5 0 0 0 -1.38867,1 L 131,219.33984 a 5,5 0 0 0 0,7.07032 5,5 0 0 0 7.07031,0 l 9.06055,-9 a 28.06,28.06 0 0 1 -1.33008,6.82031 40,40 0 0 1 -8.4414,14.25 l -16.75,16.75976 -43.798833,-43.89062 16.75,-16.75977 c 0.57,-0.56 9.289613,-9.07929 21.099613,-9.77929 z"
           style="fill:#2e222f;fill-opacity:1" />
      </g>
    </g>
  </g>
</svg>
